<svg width="16" height="16" viewBox="0 0 16 16" fill="none" xmlns="http://www.w3.org/2000/svg">
<path d="M8 13C8.278 13 8.514 12.9027 8.708 12.708C8.90267 12.514 9 12.278 9 12C9 11.722 8.90267 11.486 8.708 11.292C8.514 11.0973 8.278 11 8 11C7.722 11 7.486 11.0973 7.292 11.292C7.09733 11.486 7 11.722 7 12C7 12.278 7.09733 12.514 7.292 12.708C7.486 12.9027 7.722 13 8 13ZM7.25 9.812H8.771C8.771 9.29867 8.816 8.93433 8.906 8.719C8.99667 8.50367 9.21533 8.22933 9.562 7.896C10.0487 7.424 10.3857 7.02133 10.573 6.688C10.7603 6.35467 10.854 5.98633 10.854 5.583C10.854 4.81967 10.5937 4.19833 10.073 3.719C9.55233 3.23967 8.889 3 8.083 3C7.375 3 6.76067 3.18733 6.24 3.562C5.71867 3.93733 5.354 4.44433 5.146 5.083L6.5 5.646C6.62533 5.25667 6.82333 4.95467 7.094 4.74C7.36467 4.52467 7.68067 4.417 8.042 4.417C8.43067 4.417 8.75 4.528 9 4.75C9.25 4.972 9.375 5.26367 9.375 5.625C9.375 5.94433 9.26733 6.229 9.052 6.479C8.83667 6.729 8.597 6.972 8.333 7.208C7.847 7.65267 7.545 8.01733 7.427 8.302C7.309 8.58667 7.25 9.09 7.25 9.812ZM8 16C6.90267 16 5.868 15.7917 4.896 15.375C3.924 14.9583 3.07333 14.3853 2.344 13.656C1.61467 12.9267 1.04167 12.076 0.625 11.104C0.208333 10.132 0 9.09733 0 8C0 6.88867 0.208333 5.85033 0.625 4.885C1.04167 3.92033 1.61467 3.07333 2.344 2.344C3.07333 1.61467 3.924 1.04167 4.896 0.625C5.868 0.208333 6.90267 0 8 0C9.11133 0 10.1497 0.208333 11.115 0.625C12.0797 1.04167 12.9267 1.61467 13.656 2.344C14.3853 3.07333 14.9583 3.92033 15.375 4.885C15.7917 5.85033 16 6.88867 16 8C16 9.09733 15.7917 10.132 15.375 11.104C14.9583 12.076 14.3853 12.9267 13.656 13.656C12.9267 14.3853 12.0797 14.9583 11.115 15.375C10.1497 15.7917 9.11133 16 8 16Z" fill="#282B2E"/>
</svg>
