<svg width="16" height="16" viewBox="0 0 16 16" fill="none" xmlns="http://www.w3.org/2000/svg">
<path d="M5.0625 12L8 9.0625L10.9375 12L12 10.9375L9.0625 8L12 5.0625L10.9375 4L8 6.9375L5.0625 4L4 5.0625L6.9375 8L4 10.9375L5.0625 12ZM8 16C6.90278 16 5.86806 15.7917 4.89583 15.375C3.92361 14.9583 3.07292 14.3854 2.34375 13.6562C1.61458 12.9271 1.04167 12.0764 0.625 11.1042C0.208333 10.1319 0 9.09722 0 8C0 6.88889 0.208333 5.85069 0.625 4.88542C1.04167 3.92014 1.61458 3.07292 2.34375 2.34375C3.07292 1.61458 3.92361 1.04167 4.89583 0.625C5.86806 0.208333 6.90278 0 8 0C9.11111 0 10.1493 0.208333 11.1146 0.625C12.0799 1.04167 12.9271 1.61458 13.6562 2.34375C14.3854 3.07292 14.9583 3.92014 15.375 4.88542C15.7917 5.85069 16 6.88889 16 8C16 9.09722 15.7917 10.1319 15.375 11.1042C14.9583 12.0764 14.3854 12.9271 13.6562 13.6562C12.9271 14.3854 12.0799 14.9583 11.1146 15.375C10.1493 15.7917 9.11111 16 8 16Z" fill="#4FE3C1"/>
</svg>
