<svg width="24" height="25" viewBox="0 0 24 25" fill="none" xmlns="http://www.w3.org/2000/svg">
<mask id="mask0_2067_14564" style="mask-type:alpha" maskUnits="userSpaceOnUse" x="0" y="0" width="24" height="25">
<rect y="0.5" width="24" height="24" fill="#D9D9D9"/>
</mask>
<g mask="url(#mask0_2067_14564)">
<path d="M12.003 20.7746C11.427 20.7746 10.9343 20.57 10.5247 20.1608C10.1151 19.7516 9.91028 19.2596 9.91028 18.6849C9.91028 18.1086 10.1149 17.6153 10.5241 17.2049C10.9333 16.7945 11.4253 16.5893 12 16.5893C12.5779 16.5893 13.0706 16.7942 13.4782 17.2041C13.8858 17.614 14.0896 18.1068 14.0896 18.6824C14.0896 19.258 13.8858 19.7506 13.4782 20.1602C13.0706 20.5698 12.5789 20.7746 12.003 20.7746ZM12.003 14.5893C11.427 14.5893 10.9343 14.3847 10.5247 13.9754C10.1151 13.5662 9.91028 13.0743 9.91028 12.4996C9.91028 11.9217 10.1149 11.429 10.5241 11.0214C10.9333 10.6137 11.4253 10.4099 12 10.4099C12.5779 10.4099 13.0706 10.6137 13.4782 11.0214C13.8858 11.429 14.0896 11.9207 14.0896 12.4966C14.0896 13.0725 13.8858 13.5653 13.4782 13.9749C13.0706 14.3845 12.5789 14.5893 12.003 14.5893ZM12.003 8.40993C11.427 8.40993 10.9343 8.20457 10.5247 7.79383C10.1151 7.3831 9.91028 6.88935 9.91028 6.31258C9.91028 5.73582 10.1149 5.24363 10.5241 4.83601C10.9333 4.42841 11.4253 4.22461 12 4.22461C12.5779 4.22461 13.0706 4.42841 13.4782 4.83601C13.8858 5.24363 14.0896 5.73582 14.0896 6.31258C14.0896 6.88935 13.8858 7.3831 13.4782 7.79383C13.0706 8.20457 12.5789 8.40993 12.003 8.40993Z" fill="#1C1B1F"/>
</g>
</svg>
