<svg width="141" height="35" viewBox="0 0 141 35" fill="none" xmlns="http://www.w3.org/2000/svg">
<path d="M15.6931 0.421875L0 26.5774H7.84656L15.6931 13.4996V0.421875Z" fill="#08090B"/>
<path d="M17.1882 17.8591L11.9575 26.5774H17.1882H27.6506V0.421875L17.1882 17.8591Z" fill="#08090B"/>
<path d="M39.6506 26.365V11.4806H42.5637L47.9858 20.3049L46.0722 20.2836L51.5581 11.4806H54.3436V26.365H51.2179V21.2618C51.2179 19.986 51.2462 18.8377 51.3029 17.8171C51.3738 16.7965 51.4872 15.7829 51.6431 14.7765L52.0259 15.7758L47.6669 22.5376H46.2635L41.9896 15.8184L42.3511 14.7765C42.507 15.7262 42.6133 16.7043 42.67 17.7108C42.7409 18.7031 42.7763 19.8867 42.7763 21.2618V26.365H39.6506Z" fill="black"/>
<path d="M62.212 26.5776C61.2764 26.5776 60.433 26.3224 59.6817 25.8121C58.9304 25.3018 58.335 24.6072 57.8955 23.7283C57.4561 22.8494 57.2364 21.843 57.2364 20.7089C57.2364 19.5749 57.4561 18.5755 57.8955 17.7108C58.3492 16.8319 58.9587 16.1444 59.7242 15.6482C60.4897 15.1379 61.3615 14.8828 62.3396 14.8828C62.8924 14.8828 63.3957 14.9678 63.8493 15.1379C64.3171 15.2939 64.7211 15.5136 65.0613 15.7971C65.4157 16.0806 65.7134 16.4066 65.9543 16.7752C66.1953 17.1438 66.3654 17.5407 66.4647 17.9659L65.8268 17.8596V15.1167H68.8249V26.365H65.7842V23.6645L66.4647 23.6007C66.3513 23.9976 66.167 24.3733 65.9118 24.7277C65.6567 25.0821 65.3377 25.401 64.955 25.6845C64.5864 25.9539 64.1682 26.1736 63.7004 26.3437C63.2326 26.4996 62.7365 26.5776 62.212 26.5776ZM63.0413 23.9622C63.6083 23.9622 64.1044 23.8275 64.5297 23.5582C64.955 23.2889 65.281 22.9132 65.5078 22.4312C65.7488 21.9351 65.8693 21.361 65.8693 20.7089C65.8693 20.071 65.7488 19.5111 65.5078 19.0291C65.281 18.5471 64.955 18.1715 64.5297 17.9022C64.1044 17.6186 63.6083 17.4769 63.0413 17.4769C62.4884 17.4769 61.9994 17.6186 61.5741 17.9022C61.163 18.1715 60.837 18.5471 60.596 19.0291C60.355 19.5111 60.2345 20.071 60.2345 20.7089C60.2345 21.361 60.355 21.9351 60.596 22.4312C60.837 22.9132 61.163 23.2889 61.5741 23.5582C61.9994 23.8275 62.4884 23.9622 63.0413 23.9622Z" fill="black"/>
<path d="M79.1667 26.365L76.3812 22.3887L75.5306 21.198L70.9803 15.1167H74.6376L77.3593 18.9653L78.2949 20.2411L82.7814 26.365H79.1667ZM70.9378 26.365L75.4243 20.2199L77.0829 22.1973L74.4887 26.365H70.9378ZM78.1673 21.3043L76.5513 19.3268L78.954 15.1167H82.505L78.1673 21.3043Z" fill="black"/>
<path d="M85.1161 26.365V15.1167H88.1354V26.365H85.1161ZM86.6045 12.799C86.0233 12.799 85.5697 12.6572 85.2436 12.3737C84.9176 12.0902 84.7546 11.6862 84.7546 11.1617C84.7546 10.6797 84.9176 10.2899 85.2436 9.99221C85.5839 9.68035 86.0375 9.52441 86.6045 9.52441C87.1857 9.52441 87.6393 9.67326 87.9653 9.97094C88.2914 10.2545 88.4544 10.6514 88.4544 11.1617C88.4544 11.6578 88.2843 12.0547 87.9441 12.3524C87.618 12.6501 87.1715 12.799 86.6045 12.799Z" fill="black"/>
<path d="M91.5517 26.365V15.1167H94.4648L94.5286 17.2643L94.082 17.3493C94.238 16.9807 94.4435 16.6476 94.6987 16.3499C94.9538 16.0522 95.2515 15.7971 95.5917 15.5845C95.9461 15.3718 96.3147 15.2088 96.6974 15.0954C97.0802 14.9678 97.4629 14.904 97.8456 14.904C98.4268 14.904 98.9513 14.9962 99.4191 15.1805C99.8869 15.3647 100.284 15.6553 100.61 16.0522C100.936 16.435 101.191 16.9453 101.375 17.5832L100.908 17.5407L101.056 17.2005C101.241 16.8603 101.475 16.5555 101.758 16.2861C102.042 16.0026 102.361 15.7617 102.715 15.5632C103.069 15.3506 103.438 15.1875 103.821 15.0741C104.203 14.9607 104.579 14.904 104.948 14.904C105.826 14.904 106.556 15.0812 107.138 15.4356C107.719 15.7758 108.151 16.2932 108.435 16.9878C108.732 17.6824 108.881 18.533 108.881 19.5394V26.365H105.862V19.7521C105.862 19.2417 105.791 18.8236 105.649 18.4975C105.508 18.1715 105.302 17.9305 105.033 17.7746C104.763 17.6045 104.416 17.5194 103.991 17.5194C103.665 17.5194 103.36 17.5761 103.076 17.6895C102.807 17.7888 102.566 17.9376 102.353 18.1361C102.155 18.3203 101.999 18.5401 101.886 18.7952C101.772 19.0504 101.716 19.3339 101.716 19.6457V26.365H98.6962V19.7308C98.6962 19.263 98.6182 18.8661 98.4623 18.5401C98.3205 18.1998 98.115 17.9447 97.8456 17.7746C97.5763 17.6045 97.2432 17.5194 96.8463 17.5194C96.5202 17.5194 96.2154 17.5761 95.9319 17.6895C95.6626 17.7888 95.4287 17.9376 95.2302 18.1361C95.0318 18.3203 94.8688 18.5401 94.7412 18.7952C94.6278 19.0504 94.5711 19.3268 94.5711 19.6245V26.365H91.5517Z" fill="black"/>
<path d="M112.224 26.365V15.1167H115.244V26.365H112.224ZM113.713 12.799C113.132 12.799 112.678 12.6572 112.352 12.3737C112.026 12.0902 111.863 11.6862 111.863 11.1617C111.863 10.6797 112.026 10.2899 112.352 9.99221C112.692 9.68035 113.146 9.52441 113.713 9.52441C114.294 9.52441 114.748 9.67326 115.074 9.97094C115.4 10.2545 115.563 10.6514 115.563 11.1617C115.563 11.6578 115.393 12.0547 115.052 12.3524C114.726 12.6501 114.28 12.799 113.713 12.799Z" fill="black"/>
<path d="M118.235 26.365V24.4513L124.167 16.7539V17.6045H118.235V15.1167H127.208V17.0729L121.53 24.5788L121.445 23.8771H127.357V26.365H118.235Z" fill="black"/>
<path d="M135.278 26.5776C134.059 26.5776 132.996 26.3295 132.088 25.8334C131.181 25.3372 130.472 24.6568 129.962 23.7921C129.452 22.9274 129.197 21.9351 129.197 20.8152C129.197 19.9505 129.338 19.1567 129.622 18.4337C129.905 17.7108 130.302 17.0871 130.813 16.5626C131.323 16.0239 131.925 15.6128 132.62 15.3293C133.329 15.0316 134.094 14.8828 134.916 14.8828C135.682 14.8828 136.391 15.0245 137.043 15.308C137.695 15.5774 138.255 15.9672 138.723 16.4775C139.204 16.9737 139.573 17.5619 139.828 18.2424C140.083 18.9228 140.197 19.667 140.168 20.475L140.147 21.4106H131.11L130.621 19.5607H137.659L137.319 19.9434V19.4756C137.291 19.0929 137.163 18.7456 136.936 18.4337C136.724 18.1219 136.447 17.8809 136.107 17.7108C135.767 17.5407 135.384 17.4556 134.959 17.4556C134.335 17.4556 133.804 17.5761 133.364 17.8171C132.939 18.0581 132.613 18.4125 132.386 18.8803C132.159 19.3481 132.046 19.9151 132.046 20.5813C132.046 21.2618 132.188 21.85 132.471 22.3462C132.769 22.8423 133.18 23.2322 133.704 23.5157C134.243 23.785 134.874 23.9197 135.597 23.9197C136.093 23.9197 136.547 23.8417 136.958 23.6858C137.369 23.5298 137.808 23.2605 138.276 22.8778L139.722 24.8978C139.311 25.2663 138.857 25.5782 138.361 25.8334C137.865 26.0744 137.355 26.2586 136.83 26.3862C136.306 26.5138 135.788 26.5776 135.278 26.5776Z" fill="black"/>
</svg>
