<svg width="25" height="25" viewBox="0 0 25 25" fill="none" xmlns="http://www.w3.org/2000/svg">
<path d="M12.4999 24.8288C10.7898 24.8288 9.18526 24.5056 7.68622 23.8592C6.18718 23.2128 4.88308 22.335 3.77391 21.2258C2.66474 20.1166 1.78694 18.8125 1.14053 17.3135C0.494107 15.8145 0.170898 14.2099 0.170898 12.4999C0.170898 10.7898 0.494107 9.18526 1.14053 7.68622C1.78694 6.18718 2.66474 4.88308 3.77391 3.77391C4.88308 2.66474 6.18718 1.78694 7.68622 1.14053C9.18526 0.494107 10.7898 0.170898 12.4999 0.170898C14.2099 0.170898 15.8145 0.494107 17.3135 1.14053C18.8125 1.78694 20.1166 2.66474 21.2258 3.77391C22.335 4.88308 23.2128 6.18718 23.8592 7.68622C24.5056 9.18526 24.8288 10.7898 24.8288 12.4999C24.8288 13.034 24.7998 13.558 24.7418 14.072C24.6838 14.586 24.5891 15.0899 24.4578 15.5837C24.1325 15.2182 23.7535 14.9198 23.3207 14.6886C22.8879 14.4575 22.4211 14.3161 21.9203 14.2644C21.9759 13.9816 22.0164 13.6925 22.0418 13.3972C22.0671 13.1019 22.0798 12.8028 22.0798 12.4999C22.0798 9.82052 21.153 7.55402 19.2994 5.70035C17.4457 3.84671 15.1792 2.91989 12.4999 2.91989C9.82052 2.91989 7.55402 3.84671 5.70035 5.70035C3.84671 7.55402 2.91989 9.82052 2.91989 12.4999C2.91989 15.1792 3.84671 17.4457 5.70035 19.2994C7.55402 21.153 9.82052 22.0798 12.4999 22.0798C13.5125 22.0798 14.4774 21.9336 15.3946 21.6412C16.3118 21.3487 17.1583 20.9378 17.9341 20.4085C18.1805 20.8183 18.4981 21.177 18.8866 21.4845C19.2752 21.7921 19.6997 22.026 20.1603 22.1862C19.1139 23.0167 17.9417 23.6648 16.6437 24.1304C15.3456 24.596 13.9643 24.8288 12.4999 24.8288ZM21.4192 19.9882C20.9529 19.9882 20.557 19.8254 20.2312 19.4997C19.9055 19.1739 19.7426 18.7779 19.7426 18.3117C19.7426 17.8454 19.9055 17.4494 20.2312 17.1237C20.557 16.798 20.9529 16.6351 21.4192 16.6351C21.8855 16.6351 22.2814 16.798 22.6072 17.1237C22.9329 17.4494 23.0958 17.8454 23.0958 18.3117C23.0958 18.7779 22.9329 19.1739 22.6072 19.4997C22.2814 19.8254 21.8855 19.9882 21.4192 19.9882ZM16.379 18.2224L11.1832 13.0265V6.49432H13.8165V11.9587L18.2368 16.379L16.379 18.2224Z" fill="#1C1B1F"/>
</svg>
